<svg width="800" height="600" viewBox="0 0 800 600" fill="none" xmlns="http://www.w3.org/2000/svg">
  <rect width="800" height="600" rx="16" fill="#F3F4F6"/>
  <g transform="translate(80,90)">
    <rect x="0" y="0" width="360" height="220" rx="12" fill="#fff" stroke="#E5E7EB"/>
    <rect x="18" y="18" width="160" height="18" rx="6" fill="#EEF2FF"/>
    <rect x="18" y="46" width="320" height="12" rx="6" fill="#F3F4F6"/>
    <rect x="18" y="66" width="300" height="12" rx="6" fill="#F3F4F6"/>
    <rect x="18" y="86" width="280" height="12" rx="6" fill="#F3F4F6"/>
  </g>
  <g transform="translate(420,100)">
    <circle cx="100" cy="80" r="80" fill="#DBEAFE"/>
    <path d="M40 120 L160 120" stroke="#93C5FD" stroke-width="10" stroke-linecap="round"/>
    <rect x="64" y="40" width="72" height="24" rx="6" fill="#BFDBFE"/>
  </g>
  <g transform="translate(120,340)">
    <rect x="0" y="0" width="560" height="120" rx="12" fill="#fff" stroke="#E5E7EB"/>
    <rect x="18" y="18" width="160" height="18" rx="6" fill="#EEF2FF"/>
    <rect x="18" y="46" width="360" height="12" rx="6" fill="#F3F4F6"/>
  </g>
</svg>
